<?xml version="1.0" standalone="no"?>
<!DOCTYPE svg PUBLIC "-//W3C//DTD SVG 20010904//EN"
 "http://www.w3.org/TR/2001/REC-SVG-20010904/DTD/svg10.dtd">
<svg version="1.0" xmlns="http://www.w3.org/2000/svg"
 width="900.000000pt" height="500.000000pt" viewBox="0 0 900.000000 500.000000"
 preserveAspectRatio="xMidYMid meet">

<g transform="translate(0.000000,500.000000) scale(0.100000,-0.100000)"
fill="#000000" stroke="none">
<path d="M4350 2662 l0 -692 110 0 110 0 0 407 0 408 488 -488 c268 -268 490
-487 495 -487 4 0 7 311 7 690 l0 690 -115 0 -115 0 0 -407 0 -408 -490 490
-490 490 0 -693z"/>
<path d="M410 2662 l0 -682 110 0 110 0 0 412 0 413 193 -193 192 -192 185
185 c102 102 188 185 192 185 5 0 8 -182 8 -405 l0 -405 105 0 105 0 0 682 0
683 -300 -300 -300 -300 -300 300 -300 300 0 -683z"/>
<path d="M1790 2578 l0 -613 303 303 302 302 460 -460 460 -460 167 0 c93 0
168 3 168 7 0 5 -243 251 -540 548 l-540 540 215 215 c118 118 215 218 215
222 0 5 -75 8 -167 8 l-168 0 -327 -327 -328 -328 0 328 0 327 -110 0 -110 0
0 -612z"/>
<path d="M5660 2580 l0 -610 605 0 605 0 0 610 0 610 -115 0 -115 0 0 -495 0
-495 -380 0 -380 0 0 495 0 495 -110 0 -110 0 0 -610z"/>
<path d="M6980 2578 l0 -613 303 303 302 302 460 -460 460 -460 167 0 c93 0
168 3 168 7 0 5 -243 251 -540 548 l-540 540 215 215 c118 118 215 218 215
222 0 5 -75 8 -167 8 l-168 0 -327 -327 -328 -328 0 328 0 327 -110 0 -110 0
0 -612z"/>
<path d="M3100 2832 l0 -347 253 -253 252 -252 268 0 267 0 0 600 0 600 -520
0 -520 0 0 -348z m840 -252 l0 -400 -112 0 -113 0 -207 207 -208 208 0 192 0
193 320 0 320 0 0 -400z"/>
</g>
</svg>
